<?xml version="1.0" encoding="UTF-8" standalone="no"?>
<!-- Created with Inkscape (http://www.inkscape.org/) -->

<svg
   sodipodi:docname="evnt_raw.svg"
   inkscape:version="1.1 (c68e22c387, 2021-05-23)"
   id="svg5"
   version="1.1"
   viewBox="0 0 19 18.6"
   height="18.6mm"
   width="19mm"
   xmlns:inkscape="http://www.inkscape.org/namespaces/inkscape"
   xmlns:sodipodi="http://sodipodi.sourceforge.net/DTD/sodipodi-0.dtd"
   xmlns="http://www.w3.org/2000/svg"
   xmlns:svg="http://www.w3.org/2000/svg">
  <sodipodi:namedview
     id="namedview7"
     pagecolor="#ffffff"
     bordercolor="#999999"
     borderopacity="1"
     inkscape:pageshadow="0"
     inkscape:pageopacity="0"
     inkscape:pagecheckerboard="0"
     inkscape:document-units="mm"
     showgrid="false"
     inkscape:zoom="8"
     inkscape:cx="44.384993"
     inkscape:cy="33.6607"
     inkscape:window-width="1920"
     inkscape:window-height="1027"
     inkscape:window-x="-8"
     inkscape:window-y="-8"
     inkscape:window-maximized="1"
     inkscape:current-layer="g7799"
     inkscape:rotation="3"
     inkscape:snap-grids="true"
     inkscape:snap-to-guides="true" />
  <defs
     id="defs2">
    <inkscape:path-effect
       effect="perspective-envelope"
       up_left_point="86.419245,64.283098"
       up_right_point="105.12387,64.283098"
       down_left_point="85.272868,85.693008"
       down_right_point="108.82755,85.604825"
       id="path-effect1842"
       is_visible="true"
       lpeversion="1"
       deform_type="perspective"
       horizontal_mirror="false"
       vertical_mirror="false"
       overflow_perspective="false" />
  </defs>
  <g
     inkscape:label="Vrstva 1"
     inkscape:groupmode="layer"
     id="layer1">
    <g
       id="g7799"
       style="fill:#2d1650"
       transform="translate(-78.485827,-56.75224)"
       inkscape:label="g7799">
      <path
         id="path7797"
         style="font-size:22.5778px;line-height:1.25;font-family:'Roundy Rainbows';-inkscape-font-specification:'Roundy Rainbows';display:inline;fill:#2d1650;stroke-width:0.292399px"
         d="m 88.302734,56.792969 c -2.123696,0.286049 -4.284588,0.397862 -6.373329,0.893285 -1.374275,0.321652 -2.752428,1.18386 -3.159148,2.586107 -0.09591,0.288953 -0.109788,0.423385 -0.161139,0.62541 -0.06452,0.709575 -0.15868,1.465754 -0.0087,2.211213 0.06511,1.414345 1.273701,2.462844 2.634004,2.639063 -0.466329,0.704148 -0.619199,1.534209 -0.796875,2.318359 -0.224542,1.322241 -0.03326,2.638265 0.128906,3.992188 0.240368,1.060818 1.553347,0.948461 2.417093,0.829835 0.875031,-0.08912 1.710738,-0.532805 2.039126,-1.413174 0.147207,-0.662774 0.257267,-1.229456 0.178431,-1.991609 -0.03883,-0.526395 -0.231275,-1.157581 0.06457,-1.456302 0.265656,-0.222328 0.500916,0.429796 0.483607,0.708539 0.190098,1.17887 0.238422,2.390668 0.51444,3.549273 0.531617,0.900237 1.810666,0.664924 2.710937,0.535156 0.653795,-0.116669 1.446643,-0.417885 1.609375,-1.076171 0.261978,1.009286 0.384556,2.070418 0.740235,3.044921 0.654975,0.788181 1.856785,0.51862 2.759742,0.390479 0.751728,-0.103529 1.39478,-0.602297 1.588963,-1.353705 0.0673,-0.550471 0.22737,-1.008159 0.06081,-1.671543 l -0.647796,-2.451168 c 0.790721,-0.05965 1.888298,-0.226354 2.089843,-1.123047 0.134206,-0.440102 0.277954,-0.848908 0.345703,-1.324219 0.08649,-1.040289 -0.996556,-1.773888 -1.958579,-1.524521 -0.447831,0.138595 -0.517092,0.07206 -0.460501,-0.36234 0.215732,-1.390489 0.415516,-2.787485 0.901502,-4.081889 0.102999,-0.292925 0.13881,-0.548655 0.253906,-0.808593 0.190753,-0.564042 0.496651,-1.476576 -0.267578,-1.814454 -0.879404,-0.428971 -2.116352,-0.235169 -2.521484,0.753907 -0.38446,0.919775 -0.739975,1.852821 -1.164062,2.757812 -0.802302,-0.496636 -1.442737,-1.405556 -2.557967,-1.211741 -0.192367,-0.0023 -0.765654,0.260919 -0.733049,0.04572 0.147687,-0.345453 0.30034,-0.687289 0.414453,-0.949219 0.07712,-0.206405 0.13382,-0.455197 0.206641,-0.759766 0.09336,-0.63685 0.469609,-1.337816 -0.002,-1.957031 -0.303006,-0.420855 -0.830595,-0.577334 -1.330078,-0.550781 z"
         sodipodi:nodetypes="ccccccccccccccccccccccccccccccccccccc" />
    </g>
    <path
       id="path1815"
       style="font-size:22.5778px;line-height:1.25;font-family:'Roundy Rainbows';-inkscape-font-specification:'Roundy Rainbows';fill:#ffcc00;stroke-width:0.292399"
       d="m 5.1826789,1.1334327 c -2.945642,0.364508 -4.35946196,1.430536 -4.23658596,3.251714 l 0.03732,0.558265 c 0.12892096,1.910716 1.77075996,2.694705 4.91851496,2.292731 l 4.7171551,-0.588459 c 0.09317,-0.01162 0.179858,-0.02679 0.260482,-0.04525 2.156281,2.182892 2.348177,2.488129 2.546251,2.63836 0.21119,0.160191 0.672607,0.197915 1.383327,0.112083 0.643616,-0.08327 1.042679,-0.228257 1.197029,-0.433994 0.153705,-0.204861 0.244026,-2.887609 1.409307,-5.9183 0.202023,-0.489307 -8.79e-4,-0.723016 -0.974472,-0.771902 -0.953991,-0.04814 -1.208749,1.282312 -1.347766,1.610175 l -1.054986,2.398223 -1.938847,-1.411756 c -0.194058,-0.185082 -1.032603,-0.07826 -1.827388,0.09491 l -4.5758061,0.569356 c -0.549064,0.06832 -0.922617,-0.07793 -1.119422,-0.436859 l 4.504578,-0.560038 c 0.766612,-0.09532 1.1025681,-0.422507 1.0091281,-0.976228 -0.09231,-0.547056 -0.5140921,-0.771329 -1.2669311,-0.677916 l -4.42367,0.549019 c 0.113155,-0.389324 0.43588,-0.611647 0.969521,-0.669319 l 4.492467,-0.556927 C 10.609978,2.0685607 10.935729,1.7563877 10.840064,1.2295387 10.745524,0.70888168 10.331261,0.49634068 9.5962899,0.58728968 Z m 1.507767,6.465962 c -2.768171,0.348995 -4.08147,1.540993 -3.932551,3.6467943 l 0.189622,2.676916 c 0.04326,0.446435 0.616361,0.600931 1.719085,0.460545 1.113848,-0.141863 1.646256,-0.442369 1.597763,-0.898586 l -0.281319,-2.647865 c -0.0903,-0.8497405 0.218482,-1.3133473 0.924599,-1.4026403 0.705923,-0.08927 1.112843,0.283768 1.222978,1.1306423 l 0.432459,3.322218 c 0.06001,0.461324 0.650321,0.622445 1.7704021,0.479712 1.119587,-0.142775 1.641,-0.445441 1.564757,-0.904396 l -0.268997,-1.61839 0.913134,-0.115112 1.035601,4.623812 c 0.10078,0.397674 0.694186,0.528712 1.779164,0.390624 1.095936,-0.139445 1.589391,-0.413898 1.481969,-0.820209 l -1.211789,-4.583264 2.054361,-0.259457 c 0.684397,-0.0864 0.944325,-0.397995 0.782233,-0.928884 -0.158235,-0.5182603 -0.56441,-0.7362443 -1.220871,-0.6591403 l -5.88141,0.7402883 -0.01247,-0.07552 C 11.004038,8.0799697 9.4556629,7.2506977 6.6904409,7.5993297 Z" />
  </g>
</svg>
